<svg width="13" height="8" viewBox="0 0 13 8" fill="none" xmlns="http://www.w3.org/2000/svg">
<path d="M0.5 3.77561C0.220741 3.77561 -0.005644 4.00199 -0.00564402 4.28125C-0.00564405 4.56051 0.22074 4.78689 0.5 4.78689L0.5 3.77561ZM12.8573 4.6388C13.0548 4.44133 13.0548 4.12117 12.8573 3.92371L9.63943 0.705808C9.44197 0.508341 9.12181 0.508341 8.92434 0.705807C8.72688 0.903274 8.72688 1.22343 8.92434 1.4209L11.7847 4.28125L8.92434 7.14161C8.72688 7.33907 8.72688 7.65923 8.92434 7.85669C9.12181 8.05416 9.44197 8.05416 9.63943 7.85669L12.8573 4.6388ZM0.5 4.78689L12.4998 4.7869L12.4998 3.77561L0.5 3.77561L0.5 4.78689Z" fill="white"/>
</svg>
